<?xml version="1.0" encoding="UTF-8"?> <svg xmlns="http://www.w3.org/2000/svg" id="Layer_2" data-name="Layer 2" preserveAspectRatio="xMidYMid meet" width="123" height="134.602" viewBox="0 0 123 134.602"><defs><style>.cls-1{fill:#fff;}</style></defs><title>projects-logo-mark-white-03</title><path class="cls-1" d="M56.0929.0076H0V134.5944H123V.0076Zm64.1524,131.91H55.995v-36.79a44.8551,44.8551,0,0,1-7.8239-.7036V54.8428H43.1732V93.2135a46.5843,46.5843,0,0,1-7.4614-3.0668V54.8428H30.7135V87.1a47.1618,47.1618,0,0,1-7.46-6.6609V54.8428h-5V73.6546A44.05,44.05,0,0,1,55.995,7.0817V2.7606h64.25Z"></path><path class="cls-1" d="M100.088,51.1031A44.0133,44.0133,0,0,0,56.0667,7.0786V95.1273A44.0075,44.0075,0,0,0,100.088,51.1031Z"></path></svg> 